<?xml version="1.0" encoding="utf-8"?>
<!-- Generator: Adobe Illustrator 26.5.0, SVG Export Plug-In . SVG Version: 6.00 Build 0)  -->
<svg version="1.1" id="Layer_1" xmlns="http://www.w3.org/2000/svg" xmlns:xlink="http://www.w3.org/1999/xlink" x="0px" y="0px"
	 viewBox="0 0 166.82 84.99" style="enable-background:new 0 0 166.82 84.99;" xml:space="preserve">
<style type="text/css">
	.st0{fill:#FFFFFF;}
</style>
<g>
	<path class="st0" d="M13.6,29.97V61c0,4.04-2.02,5.93-6.07,5.93H5.29v-2.76h1.75c2.39,0,3.35-0.87,3.35-3.31V29.97H13.6z
		 M9.7,22.85c0-1.38,1.06-2.34,2.34-2.34s2.3,0.97,2.3,2.34c0,1.38-1.01,2.39-2.3,2.39S9.7,24.23,9.7,22.85z"/>
	<path class="st0" d="M29.96,29.61c5.06,0,8.5,2.71,9.93,5.88v-5.52h3.22v25.09h-3.22v-5.56c-1.47,3.22-4.96,5.93-9.97,5.93
		c-6.85,0-11.95-5.1-11.95-12.96S23.07,29.61,29.96,29.61z M30.56,32.41c-5.29,0-9.33,3.68-9.33,10.07c0,6.34,4.04,10.16,9.33,10.16
		c5.15,0,9.33-3.86,9.33-10.11C39.89,36.27,35.71,32.41,30.56,32.41z"/>
	<path class="st0" d="M52.16,55.07h-3.22V29.97h3.22v4.46c1.38-3.08,4.27-4.92,8.59-4.92v3.36h-0.87c-4.18,0-7.72,1.88-7.72,8.18
		V55.07z"/>
	<path class="st0" d="M66.73,32.69h-3.49v-2.71h3.49v-6.3h3.26v6.3h6.89v2.71h-6.89v15.58c0,3.08,1.06,4.04,3.95,4.04h2.94v2.76
		h-3.45c-4.37,0-6.71-1.79-6.71-6.8V32.69z"/>
	<path class="st0" d="M79.18,43.81c0-1.01,0-1.65,0.09-2.53h20.82c-0.28-5.88-4.37-8.96-9.05-8.96c-4.27,0-7.17,2.25-8.09,5.61h-3.4
		c1.15-4.73,5.19-8.32,11.49-8.32c7.12,0,12.32,4.96,12.32,12.91c0,8-5.1,12.92-12.32,12.92C83.69,55.44,79.18,50.2,79.18,43.81z
		 M100.09,43.9H82.45c-0.14,5.84,4.09,8.78,8.73,8.78C95.73,52.68,99.73,49.74,100.09,43.9z"/>
	<path class="st0" d="M118.43,29.61c6.3,0,10.39,3.35,11.54,8.55h-3.45c-0.83-3.58-3.86-5.79-8.09-5.79
		c-4.92,0-8.92,3.35-8.92,10.16c0,6.8,4,10.2,8.92,10.2c4.23,0,7.22-2.16,8.09-5.84h3.45c-1.15,5.01-5.24,8.55-11.54,8.55
		c-7.08,0-12.18-4.96-12.18-12.92S111.35,29.61,118.43,29.61z"/>
	<path class="st0" d="M134.38,21.06h3.22v13.19c1.61-3.08,4.92-4.73,8.73-4.73c5.56,0,10.02,3.49,10.02,10.85v14.71h-3.17V40.73
		c0-5.56-3.03-8.41-7.63-8.41c-4.69,0-7.95,2.94-7.95,9.05v13.7h-3.22V21.06z"/>
	<g>
		<path class="st0" d="M158.5,20.65c-1.78,0-3.04,1.32-3.04,3.09s1.26,3.08,3.04,3.08c1.77,0,3.03-1.31,3.03-3.08
			S160.27,20.65,158.5,20.65z M159.16,25.37l-0.85-1.31h-0.35v1.31h-0.66v-3.31h1.43c0.68,0,1.11,0.38,1.11,1
			c0,0.52-0.31,0.88-0.82,0.97l0.92,1.32L159.16,25.37z"/>
		<path class="st0" d="M157.96,22.66v0.85h0.72c0.28,0,0.49-0.12,0.49-0.43c0-0.29-0.22-0.42-0.49-0.42H157.96z"/>
	</g>
</g>
</svg>
